<?xml version="1.0" encoding="UTF-8"?>
<svg version="1.1" xmlns="http://www.w3.org/2000/svg" width="16" height="16">
<path d="M0 0 C2.31 0 4.62 0 7 0 C7 0.99 7 1.98 7 3 C8.32 3.33 9.64 3.66 11 4 C11.33 7.63 11.66 11.26 12 15 C10.35 15.33 8.7 15.66 7 16 C6.67 15.67 6.34 15.34 6 15 C4.31816052 14.76712992 2.6287584 14.58735834 0.9375 14.4375 C-0.691875 14.293125 -2.32125 14.14875 -4 14 C-4 10.37 -4 6.74 -4 3 C-3.01 3 -2.02 3 -1 3 C-0.67 2.01 -0.34 1.02 0 0 Z M1 2 C5 3 5 3 5 3 Z M-1 4 C-1.99 5.485 -1.99 5.485 -3 7 C0.38598829 8.04184255 3.46681687 8.23042499 7 8 C7.66 7.34 8.32 6.68 9 6 C6.67471713 3.67471713 6.15334102 3.70488975 3 3.6875 C1.948125 3.66236328 1.948125 3.66236328 0.875 3.63671875 C0.25625 3.75660156 -0.3625 3.87648437 -1 4 Z M-3 9 C-3 9.66 -3 10.32 -3 11 C-2.34 11 -1.68 11 -1 11 C-1 11.66 -1 12.32 -1 13 C0.98 13 2.96 13 5 13 C5.66 11.68 6.32 10.36 7 9 C6.34 9 5.68 9 5 9 C5 9.66 5 10.32 5 11 C3.68 11 2.36 11 1 11 C1 10.34 1 9.68 1 9 C-0.32 9 -1.64 9 -3 9 Z " fill="#fff" transform="translate(4,0)"/>
<path d="M0 0 C0.33 2.31 0.66 4.62 1 7 C-0.65 7.33 -2.3 7.66 -4 8 C-4.66 6.68 -5.32 5.36 -6 4 C-2.25 0 -2.25 0 0 0 Z " fill="#fff" transform="translate(15,8)"/>
<path d="M0 0 C2.31 0 4.62 0 7 0 C7 0.99 7 1.98 7 3 C7.99 3.33 8.98 3.66 10 4 C9.24074219 4.06058594 8.48148438 4.12117187 7.69921875 4.18359375 C6.70535156 4.26738281 5.71148437 4.35117188 4.6875 4.4375 C3.70136719 4.51871094 2.71523437 4.59992187 1.69921875 4.68359375 C-1.09375599 4.91812559 -1.09375599 4.91812559 -4 6 C-4 5.01 -4 4.02 -4 3 C-3.01 3 -2.02 3 -1 3 C-0.67 2.01 -0.34 1.02 0 0 Z M1 2 C5 3 5 3 5 3 Z " fill="#fff" transform="translate(4,0)"/>
<path d="M0 0 C0.33 1.32 0.66 2.64 1 4 C-1.31 4.33 -3.62 4.66 -6 5 C-3.74193548 0 -3.74193548 0 0 0 Z " fill="#fff" transform="translate(15,8)"/>
</svg>
